<?xml version="1.0" encoding="utf-8"?>
<svg xmlns="http://www.w3.org/2000/svg" viewBox="0 0 16 16">
  <path d="M3.5 2C2.675781 2 2 2.675781 2 3.5L2 12.5C2 13.324219 2.675781 14 3.5 14L12.5 14C13.324219 14 14 13.324219 14 12.5L14 3.5C14 2.675781 13.324219 2 12.5 2 Z M 3.5 3L12.5 3C12.78125 3 13 3.21875 13 3.5L13 12.5C13 12.78125 12.78125 13 12.5 13L3.5 13C3.21875 13 3 12.78125 3 12.5L3 3.5C3 3.21875 3.21875 3 3.5 3 Z M 11.269531 5.023438L7 9.292969L4.726563 7.023438L4.023438 7.726563L7 10.707031L11.980469 5.726563Z" fill="#822926" />
</svg>